<?xml version="1.0" encoding="UTF-8"?>
<svg version="1.1" xmlns="http://www.w3.org/2000/svg" width="800" height="800">
<path d="M0 0 C3.97478914 1.56972042 6.14291267 4.13969785 8.9375 7.3125 C13.55780273 12.49015247 18.35429238 17.43560772 23.32006836 22.2824707 C26.13868181 25.05548565 28.80931416 27.89419962 31.390625 30.890625 C35.06209563 35.13721844 38.99412422 39.07086513 43 43 C47.61825953 47.52978713 52.0319728 52.12959484 56.25390625 57.03125 C59.18628435 60.33755551 62.34584132 63.40718115 65.5 66.5 C69.84580205 70.79952536 74.06068278 75.1033108 78 79.78125 C81.63072952 83.80909056 85.53721327 87.57538415 89.40820312 91.37109375 C92.55502478 94.47525776 95.58335991 97.61881865 98.46875 100.96875 C102.11066491 105.1923881 106.02034299 109.09658163 110 113 C114.61825953 117.52978713 119.0319728 122.12959484 123.25390625 127.03125 C126.18628435 130.33755551 129.34584132 133.40718115 132.5 136.5 C136.84580205 140.79952536 141.06068278 145.1033108 145 149.78125 C148.63072952 153.80909056 152.53721327 157.57538415 156.40820312 161.37109375 C159.55502478 164.47525776 162.58335991 167.61881865 165.46875 170.96875 C169.11066491 175.1923881 173.02034299 179.09658163 177 183 C181.61825953 187.52978713 186.0319728 192.12959484 190.25390625 197.03125 C193.18612958 200.33738101 196.34410669 203.40917665 199.5 206.5 C203.29412972 210.21590024 207.00136566 213.94312464 210.46875 217.96875 C214.11066491 222.1923881 218.02034299 226.09658163 222 230 C226.61825953 234.52978713 231.0319728 239.12959484 235.25390625 244.03125 C238.18628435 247.33755551 241.34584132 250.40718115 244.5 253.5 C248.84580205 257.79952536 253.06068278 262.1033108 257 266.78125 C260.03674047 270.15013396 263.27828035 273.3089117 266.5 276.5 C273.1023737 283.04535283 279.18998239 289.73747799 285 297 C41.79 297 -201.42 297 -452 297 C-445.25088665 288.0011822 -445.25088665 288.0011822 -441.75805664 284.546875 C-440.98027359 283.7724707 -440.20249054 282.99806641 -439.40113831 282.20019531 C-438.57911423 281.39163086 -437.75709015 280.58306641 -436.91015625 279.75 C-436.04740585 278.89245117 -435.18465546 278.03490234 -434.29576111 277.15136719 C-431.55609689 274.4293996 -428.80980903 271.71424963 -426.0625 269 C-423.3196358 266.28489514 -420.57830576 263.56828545 -417.83995056 260.84863281 C-416.14205659 259.16284495 -414.44149776 257.47973523 -412.73780823 255.79980469 C-408.56075558 251.65768448 -404.58315184 247.43403457 -400.7485199 242.97460938 C-397.55485607 239.36799413 -394.11204592 236.01058334 -390.6875 232.625 C-389.5286731 231.47185303 -389.5286731 231.47185303 -388.34643555 230.29541016 C-385.07623964 227.0414017 -381.8000651 223.79343734 -378.52441406 220.54492188 C-376.11834715 218.15704648 -373.71536962 215.76609207 -371.3125 213.375 C-370.58313232 212.65393066 -369.85376465 211.93286133 -369.10229492 211.18994141 C-365.14862117 207.25498813 -361.40841829 203.21602914 -357.76708984 198.99194336 C-354.63263956 195.45864965 -351.26451764 192.16262784 -347.90625 188.84375 C-347.15589478 188.0971814 -346.40553955 187.35061279 -345.63244629 186.5814209 C-342.45783496 183.42298888 -339.27724084 180.27060721 -336.09716797 177.11767578 C-333.76059639 174.79930255 -331.42712001 172.4778448 -329.09375 170.15625 C-328.03250916 169.10745667 -328.03250916 169.10745667 -326.9498291 168.03747559 C-323.67971068 164.78329853 -320.51358218 161.49420302 -317.5 158 C-313.82967184 153.74430995 -309.90186495 149.79249957 -305.90625 145.84375 C-304.78071716 144.72389709 -304.78071716 144.72389709 -303.63244629 143.5814209 C-300.45783496 140.42298888 -297.27724084 137.27060721 -294.09716797 134.11767578 C-291.76059639 131.79930255 -289.42712001 129.4778448 -287.09375 127.15625 C-286.3862561 126.45705444 -285.67876221 125.75785889 -284.9498291 125.03747559 C-281.67971068 121.78329853 -278.51358218 118.49420302 -275.5 115 C-271.82967184 110.74430995 -267.90186495 106.79249957 -263.90625 102.84375 C-263.15589478 102.0971814 -262.40553955 101.35061279 -261.63244629 100.5814209 C-258.45783496 97.42298888 -255.27724084 94.27060721 -252.09716797 91.11767578 C-249.76059639 88.79930255 -247.42712001 86.4778448 -245.09375 84.15625 C-244.3862561 83.45705444 -243.67876221 82.75785889 -242.9498291 82.03747559 C-239.67971068 78.78329853 -236.51358218 75.49420302 -233.5 72 C-229.82967184 67.74430995 -225.90186495 63.79249957 -221.90625 59.84375 C-221.15589478 59.0971814 -220.40553955 58.35061279 -219.63244629 57.5814209 C-216.45783496 54.42298888 -213.27724084 51.27060721 -210.09716797 48.11767578 C-207.76059639 45.79930255 -205.42712001 43.4778448 -203.09375 41.15625 C-202.03250916 40.10745667 -202.03250916 40.10745667 -200.9498291 39.03747559 C-197.00699707 35.1138643 -193.26607774 31.08414587 -189.63375854 26.87197876 C-185.75951583 22.43282825 -181.5792557 18.27560021 -177.43774414 14.08764648 C-176.34353503 12.97667167 -175.25474722 11.86033414 -174.17114258 10.73901367 C-172.59079959 9.10423323 -170.99491862 7.48622657 -169.39453125 5.87109375 C-168.91216507 5.3660582 -168.42979889 4.86102264 -167.93281555 4.34068298 C-166.54614258 2.96264648 -166.54614258 2.96264648 -164 1 C-159.54030805 1.09388291 -156.60482222 4.66739684 -153.4375 7.5 C-152.17796497 8.60387135 -150.91753943 9.70672741 -149.65625 10.80859375 C-148.72425781 11.62626221 -148.72425781 11.62626221 -147.7734375 12.46044922 C-145.36996581 14.54694323 -142.91024932 16.55884578 -140.4375 18.5625 C-136.41641584 21.82778567 -132.44663557 25.1456779 -128.5 28.5 C-122.72463851 33.40553208 -116.88007702 38.22028827 -111 43 C-105.60800803 47.38296424 -100.23851334 51.78487563 -94.95336914 56.29614258 C-90.11382342 60.42678537 -85.28138536 64.43813546 -80 68 C-72.46356751 61.93638384 -65.12249171 55.67849319 -57.828125 49.328125 C-54.21265713 46.18058421 -50.57919443 43.0546347 -46.9375 39.9375 C-46.36410889 39.44660889 -45.79071777 38.95571777 -45.19995117 38.44995117 C-44.04469482 37.46114797 -42.88934024 36.47245951 -41.73388672 35.48388672 C-39.40538559 33.49111991 -37.07847724 31.4964986 -34.75170898 29.50170898 C-33.58599385 28.50236211 -32.42014145 27.50317532 -31.25415039 26.50415039 C-28.31046576 23.98187398 -25.36851369 21.45762374 -22.4296875 18.9296875 C-15.00920682 12.55071341 -7.53781079 6.24009245 0 0 Z " fill="#FFFFFF" transform="translate(480,391)"/>
<path d="M0 0 C247.5 0 495 0 750 0 C746.7500672 4.062416 743.80839697 6.93335094 739.75 10 C738.49378547 10.96744487 737.23861829 11.93625087 735.984375 12.90625 C735.33146484 13.41027344 734.67855469 13.91429688 734.00585938 14.43359375 C730.62866884 17.07089347 727.31643885 19.78698889 724 22.5 C718.47719107 27.00830733 712.90814029 31.44843841 707.2890625 35.8359375 C702.81563292 39.33776247 698.40132798 42.90811164 694 46.5 C688.47660315 51.00759973 682.90815564 55.44842642 677.2890625 59.8359375 C672.12398193 63.87919062 667.04000757 68.01847247 661.95874023 72.16625977 C657.69689091 75.63893482 653.39868899 79.05826306 649.0625 82.4375 C643.8024431 86.53937923 638.63749637 90.74578038 633.5 95 C627.8085006 99.71297432 622.06675554 104.34452844 616.23828125 108.88671875 C611.77910696 112.36853977 607.38265769 115.92248072 603 119.5 C597.47666343 124.00767214 591.90815403 128.44842767 586.2890625 132.8359375 C581.81563292 136.33776247 577.40132798 139.90811164 573 143.5 C567.47660315 148.00759973 561.90815564 152.44842642 556.2890625 156.8359375 C551.81563292 160.33776247 547.40132798 163.90811164 543 167.5 C538.03762183 171.5497569 533.048419 175.55799493 528 179.5 C521.48770583 184.58597845 515.0763363 189.79096139 508.671875 195.01171875 C505.02458406 197.98416829 501.35135699 200.92299568 497.671875 203.85546875 C494.8770181 206.09870916 492.09806375 208.36064636 489.3203125 210.625 C483.023772 215.75727452 476.69257157 220.83585467 470.29003906 225.83520508 C465.81624841 229.33722973 461.40164329 232.90785432 457 236.5 C451.47660315 241.00759973 445.90815564 245.44842642 440.2890625 249.8359375 C435.81563292 253.33776247 431.40132798 256.90811164 427 260.5 C421.47740765 265.00694318 415.91031228 269.44784455 410.29125977 273.83374023 C406.48752155 276.81050861 402.72636848 279.83487221 398.9855957 282.89038086 C396.96611123 284.53914104 394.94074794 286.18041608 392.9140625 287.8203125 C390.34773492 289.89697006 387.80477405 291.99808564 385.2734375 294.1171875 C384.1204444 295.0580921 382.96683181 295.99823826 381.8125 296.9375 C380.80832031 297.77152344 379.80414063 298.60554688 378.76953125 299.46484375 C376 301 376 301 373.5078125 300.5625 C370.44298092 298.65294761 367.75413064 296.45257866 365.0625 294.0625 C360.52518392 290.127781 355.93067943 286.30918679 351.1875 282.625 C346.07322322 278.64484256 341.01962588 274.59890892 336 270.5 C331.0377555 266.45008576 326.04845768 262.44194641 321 258.5 C315.25908539 254.01736805 309.60112223 249.43955976 303.95874023 244.83374023 C299.69689091 241.36106518 295.39868899 237.94173694 291.0625 234.5625 C285.05785478 229.8799785 279.18339877 225.05012135 273.31884766 220.19384766 C268.35064851 216.08870595 263.32146872 212.07466183 258.23828125 208.11328125 C253.77910696 204.63146023 249.38265769 201.07751928 245 197.5 C240.03767756 193.45017933 235.0484598 189.44194806 230 185.5 C224.25989332 181.0179989 218.60306754 176.44043443 212.9609375 171.8359375 C208.67548382 168.34469917 204.35670547 164.90181112 200 161.5 C194.25989332 157.0179989 188.60306754 152.44043443 182.9609375 147.8359375 C178.67548263 144.34469821 174.35666894 140.90185928 170 137.5 C163.48770583 132.41402155 157.0763363 127.20903861 150.671875 121.98828125 C147.79387546 119.64278467 144.90344164 117.31398453 142 115 C138.42120755 112.14777448 134.86737282 109.26647524 131.3203125 106.375 C125.023772 101.24272548 118.69257157 96.16414533 112.29003906 91.16479492 C107.12539864 87.12198213 102.04221504 82.98272721 96.9609375 78.8359375 C92.67548382 75.34469917 88.35670547 71.90181112 84 68.5 C78.25989332 64.0179989 72.60306754 59.44043443 66.9609375 54.8359375 C62.67548382 51.34469917 58.35670547 47.90181112 54 44.5 C48.25989332 40.0179989 42.60306754 35.44043443 36.9609375 30.8359375 C32.67547321 27.34469053 28.3563632 23.90226049 24 20.5 C18.6974409 16.35167666 13.42821684 12.16373374 8.1875 7.9375 C7.48689453 7.37675781 6.78628906 6.81601563 6.06445312 6.23828125 C5.41798828 5.71492188 4.77152344 5.1915625 4.10546875 4.65234375 C3.52949951 4.18820068 2.95353027 3.72405762 2.36010742 3.24584961 C1 2 1 2 0 0 Z " fill="#FFFFFF" transform="translate(25,87)"/>
<path d="M0 0 C3.38833377 2.24279932 6.69636448 4.45647302 9.8125 7.06640625 C10.82606567 7.90969482 10.82606567 7.90969482 11.86010742 8.77001953 C12.56627197 9.36153809 13.27243652 9.95305664 14 10.5625 C19.33544025 14.99899382 24.70286536 19.37432976 30.1875 23.625 C35.60766559 27.83533493 40.83677152 32.23284196 46.02539062 36.72436523 C50.13360253 40.27611171 54.31806211 43.70905566 58.578125 47.078125 C63.09661741 50.66376736 67.54068708 54.34123694 72 58 C73.83310162 59.50028317 75.66643427 61.00028408 77.5 62.5 C88.5 71.5 88.5 71.5 99.5 80.5 C100.41394531 81.24765625 101.32789062 81.9953125 102.26953125 82.765625 C104.03822795 84.21297051 105.80648543 85.66085301 107.57421875 87.109375 C113.03906421 91.58581045 118.51600645 96.047064 124 100.5 C130.34521382 105.65223637 136.6778466 110.81947976 143 116 C144.83321648 117.50014281 146.66655146 119.00014082 148.5 120.5 C181.5 147.5 181.5 147.5 214.5 174.5 C215.87091797 175.62148438 215.87091797 175.62148438 217.26953125 176.765625 C219.03822795 178.21297051 220.80648543 179.66085301 222.57421875 181.109375 C228.03906421 185.58581045 233.51600645 190.047064 239 194.5 C246.27100383 200.40396658 253.52530071 206.3279657 260.765625 212.26953125 C266.80890215 217.22400567 272.88618682 222.13282117 279 227 C273.35355498 235.28835966 266.18536173 242.00210076 259.0625 249 C256.57080422 251.45489791 254.08236955 253.91303492 251.59765625 256.375 C251.0010318 256.96603516 250.40440735 257.55707031 249.78970337 258.16601562 C246.30180743 261.64179505 242.99974214 265.20443612 239.81420898 268.9609375 C234.95682324 274.42034885 229.5964306 279.44959319 224.39746094 284.58203125 C219.03386065 289.88314938 213.75414004 295.18105925 208.85546875 300.921875 C204.15391419 306.1876161 198.99402855 311.05281128 193.97021484 316.00927734 C187.036338 322.8161357 187.036338 322.8161357 180.5 330 C175.3615007 336.01444996 169.59740606 341.45752246 163.97021484 347.00927734 C157.05093436 353.79964782 157.05093436 353.79964782 150.53125 360.96875 C145.20957431 367.19760209 139.22364586 372.83040446 133.39746094 378.58203125 C128.03386065 383.88314938 122.75414004 389.18105925 117.85546875 394.921875 C113.15391419 400.1876161 107.99402855 405.05281128 102.97021484 410.00927734 C96.05093436 416.79964782 96.05093436 416.79964782 89.53125 423.96875 C84.20957431 430.19760209 78.22364586 435.83040446 72.39746094 441.58203125 C67.03386065 446.88314938 61.75414004 452.18105925 56.85546875 457.921875 C52.15391419 463.1876161 46.99402855 468.05281128 41.97021484 473.00927734 C36.75445513 478.16140982 31.63813856 483.32215387 26.87255859 488.90039062 C22.65129567 493.63348856 18.06493515 498.03614675 13.5625 502.5 C12.5342702 503.52320139 11.50627374 504.54663733 10.47851562 505.5703125 C7.98835662 508.04957999 5.49507167 510.52567538 3 513 C0.07390101 507.53794855 -0.14318456 502.75083663 -0.12304783 496.62103653 C-0.12420167 495.76379244 -0.12535552 494.90654835 -0.12654433 494.02332717 C-0.12920551 491.13127521 -0.12469288 488.23927816 -0.12025452 485.347229 C-0.12069032 483.26075247 -0.12156539 481.17427598 -0.12284368 479.08779979 C-0.12508685 473.33903546 -0.12106976 467.59028966 -0.11606562 461.8415277 C-0.11175878 455.64794778 -0.11320771 449.45436896 -0.1139679 443.26078796 C-0.11449298 432.52490178 -0.11138259 421.78902306 -0.10573006 411.05313873 C-0.09981595 399.79161806 -0.0959647 388.53009979 -0.09487724 377.26857758 C-0.0948085 376.56874741 -0.09473976 375.86891725 -0.09466894 375.14788011 C-0.09433061 371.59389326 -0.09402923 368.03990641 -0.09374207 364.48591956 C-0.09164085 339.30359968 -0.08490124 314.12128295 -0.07543945 288.93896484 C-0.06625723 264.47249366 -0.05917253 240.00602334 -0.05493164 215.53955078 C-0.05480011 214.78557865 -0.05466859 214.03160652 -0.05453308 213.25478675 C-0.05321457 205.68318827 -0.05193876 198.11158979 -0.05069422 190.5399913 C-0.04815791 175.1153449 -0.04533665 159.69069856 -0.04234314 144.26605225 C-0.04220585 143.5568295 -0.04206856 142.84760675 -0.04192711 142.11689241 C-0.03272421 94.7445936 -0.01685797 47.37229664 0 0 Z " fill="#FFFFFF" transform="translate(0,133)"/>
<path d="M0 0 C0.03423439 47.9368864 0.06607593 95.87377371 0.08468628 143.81066895 C0.08510045 144.87477384 0.08510045 144.87477384 0.08552299 145.96037581 C0.09150871 161.37736425 0.09704909 176.79435282 0.10213066 192.21134159 C0.10462535 199.7717538 0.10721845 207.33216597 0.10986328 214.89257812 C0.1101248 215.64493277 0.11038632 216.39728741 0.11065576 217.17244069 C0.1191795 241.56143936 0.1342029 265.95042877 0.15259444 290.33942183 C0.17145874 315.40083883 0.18377068 340.4622507 0.18782998 365.52367468 C0.1884063 369.06286667 0.18905757 372.60205864 0.18975449 376.14125061 C0.18995676 377.1861033 0.18995676 377.1861033 0.19016311 378.25206412 C0.19252718 389.4679985 0.201805 400.68391704 0.21366407 411.89984495 C0.22543704 423.17375388 0.22977434 434.44764739 0.22700275 445.72156376 C0.22571905 451.83077695 0.22771667 457.9399436 0.23841095 464.04914856 C0.24812715 469.64033638 0.24864547 475.23144625 0.24179779 480.82263762 C0.24095117 482.84699424 0.24350199 484.87135568 0.24976636 486.89570278 C0.25778159 489.64538488 0.25347256 492.39478488 0.24609566 495.14446259 C0.2539767 496.32582358 0.2539767 496.32582358 0.26201695 497.53105044 C0.23090815 502.6557927 -0.59115642 507.06852902 -2 512 C-7.44305294 507.45934794 -12.50260354 502.64921611 -17.5 497.625 C-18.22058594 496.90828125 -18.94117188 496.1915625 -19.68359375 495.453125 C-23.05267708 492.0779493 -26.32990383 488.67299779 -29.4375 485.0546875 C-33.54548595 480.28825009 -38.01766561 475.91152342 -42.5 471.5 C-47.59984131 466.48072491 -52.55183483 461.43954375 -57.21289062 456.00976562 C-60.63000884 452.1669081 -64.33458665 448.60391313 -68 445 C-72.92910718 440.15359596 -77.68972211 435.27002381 -82.1953125 430.02734375 C-85.62009831 426.18001943 -89.32854526 422.60985315 -93 419 C-97.92910718 414.15359596 -102.68972211 409.27002381 -107.1953125 404.02734375 C-110.62009831 400.18001943 -114.32854526 396.60985315 -118 393 C-122.92910718 388.15359596 -127.68972211 383.27002381 -132.1953125 378.02734375 C-135.62009831 374.18001943 -139.32854526 370.60985315 -143 367 C-147.92910718 362.15359596 -152.68972211 357.27002381 -157.1953125 352.02734375 C-160.62009831 348.18001943 -164.32854526 344.60985315 -168 341 C-176.56563834 332.57808043 -176.56563834 332.57808043 -180.46875 328.03125 C-184.56202757 323.26833486 -189.02646937 318.90285874 -193.5 314.5 C-198.59984131 309.48072491 -203.55183483 304.43954375 -208.21289062 299.00976562 C-211.63000884 295.1669081 -215.33458665 291.60391313 -219 288 C-223.92910718 283.15359596 -228.68972211 278.27002381 -233.1953125 273.02734375 C-236.62009831 269.18001943 -240.32854526 265.60985315 -244 262 C-252.56524944 253.5784628 -252.56524944 253.5784628 -256.47265625 249.03125 C-260.5550737 244.2808006 -264.98739331 239.90348994 -269.4375 235.5 C-270.67790039 234.26636719 -270.67790039 234.26636719 -271.94335938 233.0078125 C-273.95994959 231.00287887 -275.97885236 229.00033747 -278 227 C-276.15276461 222.88794042 -273.48447838 220.773762 -269.9375 218.125 C-268.66129506 217.14774398 -267.38662251 216.1684844 -266.11328125 215.1875 C-265.44119629 214.67058594 -264.76911133 214.15367187 -264.07666016 213.62109375 C-260.53644911 210.85751494 -257.08256545 207.99082646 -253.625 205.125 C-246.11181349 198.91067173 -238.55777361 192.74901834 -230.98388672 186.60888672 C-227.65393555 183.90837255 -224.32712266 181.20399757 -221 178.5 C-216.94194712 175.2024585 -212.88358278 171.90530236 -208.82421875 168.609375 C-203.04264398 163.91456241 -197.26150727 159.21944093 -191.5 154.5 C-185.0425548 149.21049332 -178.56081424 143.95097339 -172.08056641 138.68945312 C-168.71974572 135.96041309 -165.3599111 133.23015975 -162 130.5 C-160.66667165 129.41666054 -159.33333831 128.33332721 -158 127.25 C-157.34 126.71375 -156.68 126.1775 -156 125.625 C-116.66666667 93.66666667 -77.33333333 61.70833333 -38 29.75 C-37.33943604 29.2132666 -36.67887207 28.6765332 -35.99829102 28.12353516 C-34.67075395 27.04496197 -33.34311792 25.96651058 -32.01538086 24.88818359 C-28.59252497 22.10803268 -25.17164175 19.3255065 -21.75390625 16.5390625 C-1.45820429 0 -1.45820429 0 0 0 Z " fill="#FFFFFF" transform="translate(800,134)"/>
</svg>
